<svg width="464" height="372" viewBox="0 0 464 372" fill="none" xmlns="http://www.w3.org/2000/svg">
<path d="M146.806 13.7872C106.446 6.8661 75.4904 31.5562 75.4904 73.0173C75.4904 90.7868 80.5853 120.401 106.06 126.325C106.06 161.839 99.73 216.487 89.2502 267.609C75.4904 334.732 131.337 359.506 160.579 362.699C253.168 372.811 418.897 390.667 394.947 295.577C383.662 250.773 359.282 206.08 381.187 126.325C401.567 113.532 416.443 115.911 421.946 90.7868C440.801 4.7124 350.54 8.01705 341.07 8.01674C298.875 13.7872 270.952 35.0756 146.806 13.7872Z" fill="#FF710B" stroke="#FF710B" stroke-width="2"/>
<path d="M75.4904 72.5609C75.4904 31.3908 104.693 6.87406 142.77 13.7466C254.981 34 283.864 15.4436 321.097 8.81368C322.494 8.56492 323.903 8.33295 325.329 8.12046C325.8 8.05014 326.277 8.01663 326.753 8.01272L327.005 8.01059C327.977 8.0023 329.334 7.99073 331.003 8.01251C351.365 8.27823 418.298 13.5075 402.336 90.2057C397.144 115.154 383.11 112.791 363.883 125.494C343.219 204.69 366.219 249.069 376.864 293.558C399.459 387.981 243.11 370.25 155.763 360.21C128.175 357.038 75.4904 332.438 88.4713 265.787C98.358 215.023 104.329 160.759 104.329 125.494C80.2969 119.612 75.4904 90.2057 75.4904 72.5609Z" fill="white"/>
<path d="M331.003 8.01251C351.365 8.27823 418.298 13.5075 402.336 90.2057C397.144 115.154 383.11 112.791 363.883 125.494C343.219 204.69 366.219 249.069 376.864 293.558C399.459 387.981 243.11 370.25 155.763 360.21C128.175 357.038 75.4904 332.438 88.4713 265.787C98.358 215.023 104.329 160.759 104.329 125.494C80.2969 119.612 75.4904 90.2057 75.4904 72.5609C75.4904 31.3908 104.693 6.87406 142.77 13.7466C254.981 34 283.864 15.4436 321.097 8.81368M331.003 8.01251C327.674 7.96908 324.375 8.23012 321.097 8.81368M331.003 8.01251C329.184 7.98878 327.737 8.00464 326.753 8.01272C326.277 8.01663 325.8 8.05014 325.329 8.12046C323.903 8.33295 322.494 8.56492 321.097 8.81368" stroke="#FF710B" stroke-width="2"/>
<path d="M100 193H48.5L28 149" stroke="black" stroke-width="10"/>
<path d="M100 193H48.5L28 149" stroke="#303030" stroke-width="10"/>
<path d="M142.77 13.5616C104.693 6.9103 75.4904 30.6379 75.4904 70.4826C75.4904 87.5594 80.2969 116.019 104.329 121.712C104.329 155.841 98.358 208.359 88.4713 257.488C75.4904 321.994 128.175 345.802 155.763 348.872C243.11 358.589 399.459 375.749 376.864 284.366C366.219 241.309 343.219 198.358 363.883 121.712C383.11 109.418 397.144 111.705 402.336 87.5594C420.123 4.84056 334.971 8.01639 326.037 8.01609C286.231 13.5616 259.888 34.0201 142.77 13.5616Z" fill="#FF710B" stroke="#FF710B" stroke-width="15"/>
<path d="M72 68.8036C72 41.7795 89.4521 8.01133 131.337 8.78671C245.341 10.8972 281.683 15.2032 318.916 8.78671C319.236 8.73167 319.555 8.6796 319.875 8.63047C320.973 8.45288 322.761 8.16792 323.856 8.01531C324.4 8.01533 326.047 8.01392 327.297 8.01278C327.804 8.00536 328.313 8.0049 328.822 8.01133L328.975 8.01327C349.456 8.2715 403.587 8.954 403.587 75.5595C403.587 100.222 375.664 112.718 358.212 121.711C337.547 198.357 365.018 241.94 375.664 284.997C398.258 376.381 256.99 368.299 155.769 357.038C128.182 353.969 76.4711 322.479 89.4521 257.973C99.3387 208.844 104.329 155.841 104.329 121.711C80.2971 116.019 72 85.8804 72 68.8036Z" fill="white"/>
<path d="M328.822 8.01133C349.184 8.26849 403.587 8.78677 403.587 75.5595C403.587 100.222 375.664 112.718 358.212 121.711C337.547 198.357 365.018 241.94 375.664 284.997C398.258 376.381 256.99 368.299 155.769 357.038C128.182 353.969 76.4711 322.479 89.4521 257.973C99.3387 208.844 104.329 155.841 104.329 121.711C80.2971 116.019 72 85.8804 72 68.8036C72 41.7795 89.4521 8.01133 131.337 8.78671C245.341 10.8972 281.683 15.2032 318.916 8.78671M328.822 8.01133C325.493 7.96929 322.193 8.22193 318.916 8.78671M328.822 8.01133C328.822 8.01133 324.773 8.01534 323.856 8.01531C322.188 8.24764 318.916 8.78671 318.916 8.78671" stroke="#FF710B" stroke-width="15"/>
<path d="M366.711 201.649C364.861 199.6 361.699 199.438 359.649 201.289C357.6 203.139 357.438 206.301 359.289 208.351L366.711 201.649ZM395.5 241L391.789 244.351L392.825 245.499L394.329 245.861L395.5 241ZM359.289 208.351L391.789 244.351L399.211 237.649L366.711 201.649L359.289 208.351ZM394.329 245.861L435.829 255.861L438.171 246.139L396.671 236.139L394.329 245.861Z" fill="#303030"/>
<ellipse cx="448" cy="250.5" rx="16" ry="11.5" fill="#333333"/>
<path d="M183.693 163.809C208.125 199.971 250.01 199.971 277.933 163.809" stroke="#FF710B" stroke-width="1.8" stroke-linecap="round"/>
<path d="M183.692 165.067C199.774 201.457 247.727 202.967 275.807 166.658" stroke="#FF710B" stroke-width="15" stroke-linecap="round"/>
<path d="M273.687 154.597L294.334 171.143" stroke="#FF710B" stroke-width="15" stroke-linecap="round"/>
<path d="M243.707 113.618L244.023 122.66C244.235 128.733 249.181 133.567 255.257 133.64L255.667 133.63C258.829 133.552 261.852 132.313 264.158 130.148C267.157 127.334 268.63 123.256 268.122 119.174L267.524 114.373C267.314 112.684 266.792 111.049 265.983 109.552L265.053 107.827C262.457 103.018 256.805 100.74 251.6 102.403C246.754 103.952 243.529 108.534 243.707 113.618Z" fill="#FF710B"/>
<path d="M187.861 113.618L188.177 122.66C188.389 128.733 193.335 133.567 199.411 133.64L199.821 133.63C202.983 133.552 206.005 132.313 208.312 130.148C211.311 127.334 212.784 123.256 212.276 119.174L211.678 114.373C211.468 112.684 210.945 111.049 210.137 109.552L209.207 107.827C206.611 103.018 200.959 100.74 195.754 102.403C190.908 103.952 187.683 108.534 187.861 113.618Z" fill="#FF710B"/>
<ellipse cx="17.5" cy="149" rx="17.5" ry="9" fill="#333333"/>
</svg>