<svg width="53" height="54" viewBox="0 0 53 54" fill="none" xmlns="http://www.w3.org/2000/svg">
<path d="M11.7161 1.82902C5.93435 0.837568 1.5 4.37444 1.5 10.3138C1.5 12.8593 2.22985 17.1016 5.87906 17.9501C5.87906 23.0375 4.97235 30.8659 3.47111 38.1892C1.5 47.8045 9.5 51.3534 13.6891 51.8109C26.9524 53.2594 50.6932 55.8173 47.2624 42.1956C45.6459 35.7774 42.1534 29.3751 45.2912 17.9501C48.2107 16.1175 50.3417 16.4584 51.1301 12.8593C53.8311 0.529049 40.901 1.00244 39.5445 1.0024C33.5 1.82902 29.5 4.87861 11.7161 1.82902Z" fill="#FF710B" stroke="#FF710B" stroke-width="2"/>
<path d="M1.5 10.2484C1.5 4.35075 5.68335 0.838708 11.1378 1.8232C27.2122 4.72452 31.3497 2.0663 36.6834 1.11656C37.1529 1.03296 37.6255 0.99557 38.1023 1.00179C41.0193 1.03986 50.6074 1.78896 48.3208 12.776C47.577 16.3499 45.5667 16.0114 42.8125 17.8311C39.8523 29.1759 43.147 35.5333 44.672 41.9064C47.9087 55.4326 25.5117 52.8926 12.9991 51.4543C9.04717 51 1.5 47.476 3.35953 37.9281C4.7758 30.6562 5.63119 22.8828 5.63119 17.8311C2.18854 16.9886 1.5 12.776 1.5 10.2484Z" fill="white"/>
<path d="M38.1023 1.00179C41.0193 1.03986 50.6074 1.78896 48.3208 12.776C47.577 16.3499 45.5667 16.0114 42.8125 17.8311C39.8523 29.1759 43.147 35.5333 44.672 41.9064C47.9087 55.4326 25.5117 52.8926 12.9991 51.4543C9.04717 51 1.5 47.476 3.35953 37.9281C4.7758 30.6562 5.63119 22.8828 5.63119 17.8311C2.18854 16.9886 1.5 12.776 1.5 10.2484C1.5 4.35075 5.68335 0.838708 11.1378 1.8232C27.2122 4.72452 31.3497 2.0663 36.6834 1.11656M38.1023 1.00179C37.6255 0.99557 37.1529 1.03296 36.6834 1.11656M38.1023 1.00179V1.00179C37.6288 0.995612 37.1497 1.03353 36.6834 1.11656V1.11656" stroke="#FF710B" stroke-width="2"/>
<path d="M11.1378 1.7967C5.68335 0.8439 1.5 4.24289 1.5 9.95068C1.5 12.3969 2.18854 16.4739 5.63119 17.2893C5.63119 22.1784 4.7758 29.7016 3.35953 36.7394C1.5 45.9799 9.04717 49.3904 12.9991 49.8301C25.5117 51.2221 47.9087 53.6803 44.672 40.5896C43.147 34.4216 39.8523 28.2689 42.8125 17.2893C45.5667 15.5282 47.577 15.8557 48.3208 12.3969C50.8689 0.547409 38.6708 1.00235 37.391 1.0023C31.6887 1.7967 27.9151 4.7274 11.1378 1.7967Z" fill="#FF710B" stroke="#FF710B" stroke-width="2"/>
<path d="M1 9.71016C1 5.83893 3.50002 1.00162 9.5 1.11269C25.8312 1.41502 31.0372 2.03186 36.3709 1.11269C36.4167 1.10481 36.4624 1.09735 36.5083 1.09031C36.6655 1.06487 36.9216 1.02405 37.0785 1.00219C37.1565 1.00219 37.3925 1.00199 37.5714 1.00183C37.6441 1.00077 37.7169 1.0007 37.7899 1.00162L37.8119 1.0019C40.7458 1.03889 48.5 1.13666 48.5 10.6779C48.5 14.2109 44.5 16.0009 42 17.2892C39.0398 28.2688 42.975 34.5121 44.5 40.68C47.7176 53.6937 25.7725 51.2515 13.2211 49.8547L12.9991 49.83C9.04719 49.3903 1.64049 46.0493 3.50002 36.8088C4.91629 29.771 5.63121 22.1783 5.63121 17.2892C2.18856 16.4738 1 12.1564 1 9.71016Z" fill="white"/>
<path d="M37.7899 1.00162C40.7068 1.03846 48.5 1.1127 48.5 10.6779C48.5 14.2109 44.5 16.0009 42 17.2892C39.0398 28.2688 42.975 34.5121 44.5 40.68C47.7367 53.7708 25.5117 51.222 12.9991 49.83C9.04719 49.3903 1.64049 46.0493 3.50002 36.8088C4.91629 29.771 5.63121 22.1783 5.63121 17.2892C2.18856 16.4738 1 12.1564 1 9.71016C1 5.83893 3.50002 1.00162 9.5 1.11269C25.8312 1.41502 31.0372 2.03186 36.3709 1.11269M37.7899 1.00162C37.313 0.995598 36.8404 1.03179 36.3709 1.11269M37.7899 1.00162C37.7899 1.00162 37.2099 1.00219 37.0785 1.00219C36.8397 1.03547 36.3709 1.11269 36.3709 1.11269" stroke="#FF710B" stroke-width="2"/>
<path d="M17.0001 23.3195C20.5001 28.4999 26.5001 28.4999 30.5001 23.3196" stroke="#FF710B" stroke-width="1.8" stroke-linecap="round"/>
<path d="M16.9997 23.4998C19.3034 28.7127 26.1727 28.929 30.1952 23.7277" stroke="#FF710B" stroke-width="1.8" stroke-linecap="round"/>
<path d="M29.8916 22L32.8493 24.3703" stroke="#FF710B" stroke-width="1.8" stroke-linecap="round"/>
<path d="M25.5973 16.1299L25.6425 17.4251C25.6729 18.295 26.3815 18.9876 27.2519 18.9981L27.3105 18.9966C27.7635 18.9855 28.1965 18.8079 28.5269 18.4978C28.9565 18.0947 29.1675 17.5104 29.0947 16.9258L29.0091 16.238C28.979 15.9961 28.9042 15.7619 28.7884 15.5473L28.6551 15.3003C28.2833 14.6115 27.4736 14.285 26.7279 14.5233C26.0338 14.7452 25.5718 15.4016 25.5973 16.1299Z" fill="#FF710B"/>
<path d="M17.5973 16.1299L17.6425 17.4251C17.6729 18.295 18.3815 18.9876 19.2519 18.9981L19.3105 18.9966C19.7635 18.9855 20.1965 18.8079 20.5269 18.4978C20.9565 18.0947 21.1675 17.5104 21.0947 16.9258L21.0091 16.238C20.979 15.9961 20.9042 15.7619 20.7884 15.5473L20.6551 15.3003C20.2833 14.6115 19.4736 14.285 18.7279 14.5233C18.0338 14.7452 17.5718 15.4016 17.5973 16.1299Z" fill="#FF710B"/>
<path d="M11.7161 1.82902C5.93435 0.837568 1.5 4.37444 1.5 10.3138C1.5 12.8593 2.22985 17.1016 5.87906 17.9501C5.87906 23.0375 4.97235 30.8659 3.47111 38.1892C1.5 47.8045 9.5 51.3534 13.6891 51.8109C26.9524 53.2594 50.6932 55.8173 47.2624 42.1956C45.6459 35.7774 42.1534 29.3751 45.2912 17.9501C48.2107 16.1175 50.3417 16.4584 51.1301 12.8593C53.8311 0.529049 40.901 1.00244 39.5445 1.0024C33.5 1.82902 29.5 4.87861 11.7161 1.82902Z" fill="#FF710B" stroke="#FF710B" stroke-width="2"/>
<path d="M1.5 10.2484C1.5 4.35075 5.68335 0.838708 11.1378 1.8232C27.2122 4.72452 31.3497 2.0663 36.6834 1.11656C37.1529 1.03296 37.6255 0.99557 38.1023 1.00179C41.0193 1.03986 50.6074 1.78896 48.3208 12.776C47.577 16.3499 45.5667 16.0114 42.8125 17.8311C39.8523 29.1759 43.147 35.5333 44.672 41.9064C47.9087 55.4326 25.5117 52.8926 12.9991 51.4543C9.04717 51 1.5 47.476 3.35953 37.9281C4.7758 30.6562 5.63119 22.8828 5.63119 17.8311C2.18854 16.9886 1.5 12.776 1.5 10.2484Z" fill="white"/>
<path d="M38.1023 1.00179C41.0193 1.03986 50.6074 1.78896 48.3208 12.776C47.577 16.3499 45.5667 16.0114 42.8125 17.8311C39.8523 29.1759 43.147 35.5333 44.672 41.9064C47.9087 55.4326 25.5117 52.8926 12.9991 51.4543C9.04717 51 1.5 47.476 3.35953 37.9281C4.7758 30.6562 5.63119 22.8828 5.63119 17.8311C2.18854 16.9886 1.5 12.776 1.5 10.2484C1.5 4.35075 5.68335 0.838708 11.1378 1.8232C27.2122 4.72452 31.3497 2.0663 36.6834 1.11656M38.1023 1.00179C37.6255 0.99557 37.1529 1.03296 36.6834 1.11656M38.1023 1.00179V1.00179C37.6288 0.995612 37.1497 1.03353 36.6834 1.11656V1.11656" stroke="#FF710B" stroke-width="2"/>
<path d="M11.1378 1.7967C5.68335 0.8439 1.5 4.24289 1.5 9.95068C1.5 12.3969 2.18854 16.4739 5.63119 17.2893C5.63119 22.1784 4.7758 29.7016 3.35953 36.7394C1.5 45.9799 9.04717 49.3904 12.9991 49.8301C25.5117 51.2221 47.9087 53.6803 44.672 40.5896C43.147 34.4216 39.8523 28.2689 42.8125 17.2893C45.5667 15.5282 47.577 15.8557 48.3208 12.3969C50.8689 0.547409 38.6708 1.00235 37.391 1.0023C31.6887 1.7967 27.9151 4.7274 11.1378 1.7967Z" fill="#FF710B" stroke="#FF710B" stroke-width="2"/>
<path d="M1 9.71016C1 5.83893 3.50002 1.00162 9.5 1.11269C25.8312 1.41502 31.0372 2.03186 36.3709 1.11269C36.4167 1.10481 36.4624 1.09735 36.5083 1.09031C36.6655 1.06487 36.9216 1.02405 37.0785 1.00219C37.1565 1.00219 37.3925 1.00199 37.5714 1.00183C37.6441 1.00077 37.7169 1.0007 37.7899 1.00162L37.8119 1.0019C40.7458 1.03889 48.5 1.13666 48.5 10.6779C48.5 14.2109 44.5 16.0009 42 17.2892C39.0398 28.2688 42.975 34.5121 44.5 40.68C47.7176 53.6937 25.7725 51.2515 13.2211 49.8547L12.9991 49.83C9.04719 49.3903 1.64049 46.0493 3.50002 36.8088C4.91629 29.771 5.63121 22.1783 5.63121 17.2892C2.18856 16.4738 1 12.1564 1 9.71016Z" fill="white"/>
<path d="M37.7899 1.00162C40.7068 1.03846 48.5 1.1127 48.5 10.6779C48.5 14.2109 44.5 16.0009 42 17.2892C39.0398 28.2688 42.975 34.5121 44.5 40.68C47.7367 53.7708 25.5117 51.222 12.9991 49.83C9.04719 49.3903 1.64049 46.0493 3.50002 36.8088C4.91629 29.771 5.63121 22.1783 5.63121 17.2892C2.18856 16.4738 1 12.1564 1 9.71016C1 5.83893 3.50002 1.00162 9.5 1.11269C25.8312 1.41502 31.0372 2.03186 36.3709 1.11269M37.7899 1.00162C37.313 0.995598 36.8404 1.03179 36.3709 1.11269M37.7899 1.00162C37.7899 1.00162 37.2099 1.00219 37.0785 1.00219C36.8397 1.03547 36.3709 1.11269 36.3709 1.11269" stroke="#FF710B" stroke-width="2"/>
<path d="M17.0001 23.3195C20.5001 28.4999 26.5001 28.4999 30.5001 23.3196" stroke="#FF710B" stroke-width="1.8" stroke-linecap="round"/>
<path d="M16.9997 23.4998C19.3034 28.7127 26.1727 28.929 30.1952 23.7277" stroke="#FF710B" stroke-width="1.8" stroke-linecap="round"/>
<path d="M29.8916 22L32.8493 24.3703" stroke="#FF710B" stroke-width="1.8" stroke-linecap="round"/>
<path d="M25.5973 16.1299L25.6425 17.4251C25.6729 18.295 26.3815 18.9876 27.2519 18.9981L27.3105 18.9966C27.7635 18.9855 28.1965 18.8079 28.5269 18.4978C28.9565 18.0947 29.1675 17.5104 29.0947 16.9258L29.0091 16.238C28.979 15.9961 28.9042 15.7619 28.7884 15.5473L28.6551 15.3003C28.2833 14.6115 27.4736 14.285 26.7279 14.5233C26.0338 14.7452 25.5718 15.4016 25.5973 16.1299Z" fill="#FF710B"/>
<path d="M17.5973 16.1299L17.6425 17.4251C17.6729 18.295 18.3815 18.9876 19.2519 18.9981L19.3105 18.9966C19.7635 18.9855 20.1965 18.8079 20.5269 18.4978C20.9565 18.0947 21.1675 17.5104 21.0947 16.9258L21.0091 16.238C20.979 15.9961 20.9042 15.7619 20.7884 15.5473L20.6551 15.3003C20.2833 14.6115 19.4736 14.285 18.7279 14.5233C18.0338 14.7452 17.5718 15.4016 17.5973 16.1299Z" fill="#FF710B"/>
</svg>
