<svg width="53" height="54" viewBox="0 0 53 54" fill="none" xmlns="http://www.w3.org/2000/svg">
    <path d="M11.7161 1.82902C5.93435 0.837568 1.5 4.37444 1.5 10.3138C1.5 12.8593 2.22985 17.1016 5.87906 17.9501C5.87906 23.0375 4.97235 30.8659 3.47111 38.1892C1.5 47.8045 9.5 51.3534 13.6891 51.8109C26.9524 53.2594 50.6932 55.8173 47.2624 42.1956C45.6459 35.7774 42.1534 29.3751 45.2912 17.9501C48.2107 16.1175 50.3417 16.4584 51.1301 12.8593C53.8311 0.529049 40.901 1.00244 39.5445 1.0024C33.5 1.82902 29.5 4.87861 11.7161 1.82902Z" fill="#D9D9D9" stroke="#D9D9D9" stroke-width="2"/>
    <path d="M1.5 10.2484C1.5 4.35075 5.68335 0.838708 11.1378 1.8232C27.2122 4.72452 31.3497 2.0663 36.6834 1.11656C37.1529 1.03296 37.6255 0.99557 38.1023 1.00179C41.0193 1.03986 50.6074 1.78896 48.3208 12.776C47.577 16.3499 45.5667 16.0114 42.8125 17.8311C39.8523 29.1759 43.147 35.5333 44.672 41.9064C47.9087 55.4326 25.5117 52.8926 12.9991 51.4543C9.04717 51 1.5 47.476 3.35953 37.9281C4.7758 30.6562 5.63119 22.8828 5.63119 17.8311C2.18854 16.9886 1.5 12.776 1.5 10.2484Z" fill="white"/>
    <path d="M38.1023 1.00179C41.0193 1.03986 50.6074 1.78896 48.3208 12.776C47.577 16.3499 45.5667 16.0114 42.8125 17.8311C39.8523 29.1759 43.147 35.5333 44.672 41.9064C47.9087 55.4326 25.5117 52.8926 12.9991 51.4543C9.04717 51 1.5 47.476 3.35953 37.9281C4.7758 30.6562 5.63119 22.8828 5.63119 17.8311C2.18854 16.9886 1.5 12.776 1.5 10.2484C1.5 4.35075 5.68335 0.838708 11.1378 1.8232C27.2122 4.72452 31.3497 2.0663 36.6834 1.11656M38.1023 1.00179C37.6255 0.99557 37.1529 1.03296 36.6834 1.11656M38.1023 1.00179V1.00179C37.6288 0.995612 37.1497 1.03353 36.6834 1.11656V1.11656" stroke="#D9D9D9" stroke-width="2"/>
    <path d="M11.1378 1.79676C5.68335 0.843961 1.5 4.24295 1.5 9.95074C1.5 12.397 2.18854 16.4739 5.63119 17.2894C5.63119 22.1784 4.7758 29.7016 3.35953 36.7394C1.5 45.9799 9.04717 49.3905 12.9991 49.8301C25.5117 51.2222 47.9087 53.6804 44.672 40.5896C43.147 34.4217 39.8523 28.269 42.8125 17.2894C45.5667 15.5282 47.577 15.8558 48.3208 12.397C50.8689 0.54747 38.6708 1.00241 37.391 1.00237C31.6887 1.79676 27.9151 4.72746 11.1378 1.79676Z" fill="#D9D9D9" stroke="#D9D9D9" stroke-width="2"/>
    <path d="M1 9.71031C1 5.83908 3.50002 1.00177 9.5 1.11285C25.8312 1.41517 31.0372 2.03201 36.3709 1.11285C36.4167 1.10496 36.4624 1.0975 36.5083 1.09047C36.6655 1.06503 36.9216 1.0242 37.0785 1.00234C37.1565 1.00235 37.3925 1.00214 37.5714 1.00198C37.6441 1.00092 37.7169 1.00085 37.7899 1.00177L37.8119 1.00205C40.7458 1.03904 48.5 1.13681 48.5 10.6781C48.5 14.211 44.5 16.0011 42 17.2894C39.0398 28.269 42.975 34.5123 44.5 40.6802C47.7176 53.6939 25.7725 51.2516 13.2211 49.8548L12.9991 49.8301C9.04719 49.3905 1.64049 46.0495 3.50002 36.809C4.91629 29.7712 5.63121 22.1784 5.63121 17.2894C2.18856 16.4739 1 12.1566 1 9.71031Z" fill="white"/>
    <path d="M37.7899 1.00177C40.7068 1.03861 48.5 1.11285 48.5 10.6781C48.5 14.211 44.5 16.0011 42 17.2894C39.0398 28.269 42.975 34.5123 44.5 40.6802C47.7367 53.7709 25.5117 51.2222 12.9991 49.8301C9.04719 49.3905 1.64049 46.0495 3.50002 36.809C4.91629 29.7712 5.63121 22.1784 5.63121 17.2894C2.18856 16.4739 1 12.1566 1 9.71031C1 5.83908 3.50002 1.00177 9.5 1.11285C25.8312 1.41517 31.0372 2.03201 36.3709 1.11285M37.7899 1.00177C37.313 0.995751 36.8404 1.03194 36.3709 1.11285M37.7899 1.00177C37.7899 1.00177 37.2099 1.00235 37.0785 1.00234C36.8397 1.03562 36.3709 1.11285 36.3709 1.11285" stroke="#D9D9D9" stroke-width="2"/>
    <path d="M17 23.3197C20.5 28.5 26.4999 28.5 30.4999 23.3197" stroke="#D9D9D9" stroke-width="1.8" stroke-linecap="round"/>
    <path d="M16.9999 23.5C19.3036 28.7129 26.173 28.9291 30.1955 23.7279" stroke="#D9D9D9" stroke-width="1.8" stroke-linecap="round"/>
    <path d="M29.8917 22L32.8494 24.3703" stroke="#D9D9D9" stroke-width="1.8" stroke-linecap="round"/>
    <path d="M25.5971 16.1299L25.6424 17.4251C25.6728 18.295 26.3813 18.9876 27.2517 18.9981L27.3104 18.9966C27.7634 18.9855 28.1964 18.8079 28.5267 18.4978C28.9563 18.0947 29.1674 17.5104 29.0946 16.9258L29.009 16.238C28.9789 15.9961 28.904 15.7619 28.7882 15.5473L28.6549 15.3003C28.2831 14.6115 27.4735 14.285 26.7278 14.5233C26.0336 14.7452 25.5717 15.4016 25.5971 16.1299Z" fill="#D9D9D9"/>
    <path d="M17.5971 16.1299L17.6424 17.4251C17.6728 18.295 18.3813 18.9876 19.2517 18.9981L19.3104 18.9966C19.7634 18.9855 20.1964 18.8079 20.5267 18.4978C20.9563 18.0947 21.1674 17.5104 21.0946 16.9258L21.009 16.238C20.9789 15.9961 20.904 15.7619 20.7882 15.5473L20.6549 15.3003C20.2831 14.6115 19.4735 14.285 18.7278 14.5233C18.0336 14.7452 17.5717 15.4016 17.5971 16.1299Z" fill="#D9D9D9"/>
    <path d="M11.7161 1.82902C5.93435 0.837568 1.5 4.37444 1.5 10.3138C1.5 12.8593 2.22985 17.1016 5.87906 17.9501C5.87906 23.0375 4.97235 30.8659 3.47111 38.1892C1.5 47.8045 9.5 51.3534 13.6891 51.8109C26.9524 53.2594 50.6932 55.8173 47.2624 42.1956C45.6459 35.7774 42.1534 29.3751 45.2912 17.9501C48.2107 16.1175 50.3417 16.4584 51.1301 12.8593C53.8311 0.529049 40.901 1.00244 39.5445 1.0024C33.5 1.82902 29.5 4.87861 11.7161 1.82902Z" fill="#D9D9D9" stroke="#D9D9D9" stroke-width="2"/>
    <path d="M1.5 10.2484C1.5 4.35075 5.68335 0.838708 11.1378 1.8232C27.2122 4.72452 31.3497 2.0663 36.6834 1.11656C37.1529 1.03296 37.6255 0.99557 38.1023 1.00179C41.0193 1.03986 50.6074 1.78896 48.3208 12.776C47.577 16.3499 45.5667 16.0114 42.8125 17.8311C39.8523 29.1759 43.147 35.5333 44.672 41.9064C47.9087 55.4326 25.5117 52.8926 12.9991 51.4543C9.04717 51 1.5 47.476 3.35953 37.9281C4.7758 30.6562 5.63119 22.8828 5.63119 17.8311C2.18854 16.9886 1.5 12.776 1.5 10.2484Z" fill="white"/>
    <path d="M38.1023 1.00179C41.0193 1.03986 50.6074 1.78896 48.3208 12.776C47.577 16.3499 45.5667 16.0114 42.8125 17.8311C39.8523 29.1759 43.147 35.5333 44.672 41.9064C47.9087 55.4326 25.5117 52.8926 12.9991 51.4543C9.04717 51 1.5 47.476 3.35953 37.9281C4.7758 30.6562 5.63119 22.8828 5.63119 17.8311C2.18854 16.9886 1.5 12.776 1.5 10.2484C1.5 4.35075 5.68335 0.838708 11.1378 1.8232C27.2122 4.72452 31.3497 2.0663 36.6834 1.11656M38.1023 1.00179C37.6255 0.99557 37.1529 1.03296 36.6834 1.11656M38.1023 1.00179V1.00179C37.6288 0.995612 37.1497 1.03353 36.6834 1.11656V1.11656" stroke="#D9D9D9" stroke-width="2"/>
    <path d="M11.1378 1.79676C5.68335 0.843961 1.5 4.24295 1.5 9.95074C1.5 12.397 2.18854 16.4739 5.63119 17.2894C5.63119 22.1784 4.7758 29.7016 3.35953 36.7394C1.5 45.9799 9.04717 49.3905 12.9991 49.8301C25.5117 51.2222 47.9087 53.6804 44.672 40.5896C43.147 34.4217 39.8523 28.269 42.8125 17.2894C45.5667 15.5282 47.577 15.8558 48.3208 12.397C50.8689 0.54747 38.6708 1.00241 37.391 1.00237C31.6887 1.79676 27.9151 4.72746 11.1378 1.79676Z" fill="#D9D9D9" stroke="#D9D9D9" stroke-width="2"/>
    <path d="M1 9.71031C1 5.83908 3.50002 1.00177 9.5 1.11285C25.8312 1.41517 31.0372 2.03201 36.3709 1.11285C36.4167 1.10496 36.4624 1.0975 36.5083 1.09047C36.6655 1.06503 36.9216 1.0242 37.0785 1.00234C37.1565 1.00235 37.3925 1.00214 37.5714 1.00198C37.6441 1.00092 37.7169 1.00085 37.7899 1.00177L37.8119 1.00205C40.7458 1.03904 48.5 1.13681 48.5 10.6781C48.5 14.211 44.5 16.0011 42 17.2894C39.0398 28.269 42.975 34.5123 44.5 40.6802C47.7176 53.6939 25.7725 51.2516 13.2211 49.8548L12.9991 49.8301C9.04719 49.3905 1.64049 46.0495 3.50002 36.809C4.91629 29.7712 5.63121 22.1784 5.63121 17.2894C2.18856 16.4739 1 12.1566 1 9.71031Z" fill="white"/>
    <path d="M37.7899 1.00177C40.7068 1.03861 48.5 1.11285 48.5 10.6781C48.5 14.211 44.5 16.0011 42 17.2894C39.0398 28.269 42.975 34.5123 44.5 40.6802C47.7367 53.7709 25.5117 51.2222 12.9991 49.8301C9.04719 49.3905 1.64049 46.0495 3.50002 36.809C4.91629 29.7712 5.63121 22.1784 5.63121 17.2894C2.18856 16.4739 1 12.1566 1 9.71031C1 5.83908 3.50002 1.00177 9.5 1.11285C25.8312 1.41517 31.0372 2.03201 36.3709 1.11285M37.7899 1.00177C37.313 0.995751 36.8404 1.03194 36.3709 1.11285M37.7899 1.00177C37.7899 1.00177 37.2099 1.00235 37.0785 1.00234C36.8397 1.03562 36.3709 1.11285 36.3709 1.11285" stroke="#D9D9D9" stroke-width="2"/>
    <path d="M17 23.3197C20.5 28.5 26.4999 28.5 30.4999 23.3197" stroke="#D9D9D9" stroke-width="1.8" stroke-linecap="round"/>
    <path d="M16.9999 23.5C19.3036 28.7129 26.173 28.9291 30.1955 23.7279" stroke="#D9D9D9" stroke-width="1.8" stroke-linecap="round"/>
    <path d="M29.8917 22L32.8494 24.3703" stroke="#D9D9D9" stroke-width="1.8" stroke-linecap="round"/>
    <path d="M25.5971 16.1299L25.6424 17.4251C25.6728 18.295 26.3813 18.9876 27.2517 18.9981L27.3104 18.9966C27.7634 18.9855 28.1964 18.8079 28.5267 18.4978C28.9563 18.0947 29.1674 17.5104 29.0946 16.9258L29.009 16.238C28.9789 15.9961 28.904 15.7619 28.7882 15.5473L28.6549 15.3003C28.2831 14.6115 27.4735 14.285 26.7278 14.5233C26.0336 14.7452 25.5717 15.4016 25.5971 16.1299Z" fill="#D9D9D9"/>
    <path d="M17.5971 16.1299L17.6424 17.4251C17.6728 18.295 18.3813 18.9876 19.2517 18.9981L19.3104 18.9966C19.7634 18.9855 20.1964 18.8079 20.5267 18.4978C20.9563 18.0947 21.1674 17.5104 21.0946 16.9258L21.009 16.238C20.9789 15.9961 20.904 15.7619 20.7882 15.5473L20.6549 15.3003C20.2831 14.6115 19.4735 14.285 18.7278 14.5233C18.0336 14.7452 17.5717 15.4016 17.5971 16.1299Z" fill="#D9D9D9"/>
</svg>
